<?xml version="1.0" encoding="UTF-8"?>
<svg width="552px" height="209px" viewBox="0 0 552 209" version="1.1" xmlns="http://www.w3.org/2000/svg" xmlns:xlink="http://www.w3.org/1999/xlink">
    <!-- Generator: Sketch 42 (36781) - http://www.bohemiancoding.com/sketch -->
    <title>Desktop Copy 9</title>
    <desc>Created with Sketch.</desc>
    <defs></defs>
    <g id="Page-1" stroke="none" stroke-width="1" fill="none" fill-rule="evenodd">
        <g id="Desktop-Copy-9" fill="#000000">
            <path d="M24.2872391,65 C24.9539091,64.33333 25.5872361,63.966667 26.1872391,63.9 C26.7872421,63.833333 27.7538991,63.8 29.0872391,63.8 L32.6872391,63.8 C34.9539171,63.13333 37.0538961,62.933332 38.9872391,63.2 C40.9205821,63.466668 43.0205611,63.6 45.2872391,63.6 L50.0872391,63.6 C50.6205751,62.93333 51.1872361,62.733332 51.7872391,63 C52.3872421,63.266668 53.0205691,63.4 53.6872391,63.4 L54.6872391,77.4 L55.8872391,77.4 C64.6872831,77.266666 71.7872121,78.299989 77.1872391,80.5 C82.5872661,82.700011 86.7872241,85.733314 89.7872391,89.6 C92.7872541,93.466686 94.8539001,97.999974 95.9872391,103.2 C97.1205781,108.400026 97.6872391,113.99997 97.6872391,120 L97.8872391,123.6 C97.8872391,124.666672 97.7205741,125.899993 97.3872391,127.3 C97.0539041,128.700007 96.6205751,130.06666 96.0872391,131.4 C95.5539031,132.73334 94.9205761,133.999994 94.1872391,135.2 C93.4539021,136.400006 92.6872431,137.266664 91.8872391,137.8 C88.5538891,139.666676 85.3205881,141.999986 82.1872391,144.8 C79.0538901,147.600014 75.9205881,150.33332 72.7872391,153 C69.6538901,155.66668 66.4205891,158.033323 63.0872391,160.1 C59.7538891,162.166677 56.2872571,163.399998 52.6872391,163.8 L48.0872391,164 C47.4205691,164.66667 47.0539061,165.066666 46.9872391,165.2 C46.9205721,165.333334 46.8872391,165.666664 46.8872391,166.2 C46.8872391,170.066686 46.9205721,173.166655 46.9872391,175.5 C47.0539061,177.833345 47.0539061,179.699993 46.9872391,181.1 C46.9205721,182.500007 46.8205731,183.566663 46.6872391,184.3 C46.5539051,185.033337 46.3539071,185.666664 46.0872391,186.2 C46.0872391,187.266672 45.8539081,188.13333 45.3872391,188.8 C44.9205701,189.46667 44.4205751,189.8 43.8872391,189.8 C41.2205591,190.733338 38.8205831,191.966659 36.6872391,193.5 C34.5538951,195.033341 32.5205821,196.699991 30.5872391,198.5 C28.6538961,200.300009 26.8205811,202.133324 25.0872391,204 C23.3538971,205.866676 21.6205811,207.599992 19.8872391,209.2 C18.6872331,208.399996 17.0539161,207.900001 14.9872391,207.7 C12.9205621,207.499999 10.8539161,207.433333 8.78723912,207.5 C6.72056212,207.566667 4.82058112,207.6 3.08723912,207.6 C1.35389712,207.6 0.220575122,207.333336 -0.312760878,206.8 C0.220575122,206.533332 0.587238122,204.566685 0.787239122,200.9 C0.987240122,197.233315 1.12057212,192.500029 1.18723912,186.7 C1.25390612,180.899971 1.25390612,174.300037 1.18723912,166.9 C1.12057212,159.499963 1.02057312,151.933372 0.887239122,144.2 C0.753905122,136.466628 0.620573122,128.866704 0.487239122,121.4 C0.353905122,113.933296 0.287239122,107.233363 0.287239122,101.3 C0.287239122,95.366637 0.353905122,90.433353 0.487239122,86.5 C0.620573122,82.566647 0.820571122,80.333336 1.08723912,79.8 L24.2872391,65 Z M20.6872391,145.8 C23.0872511,147.533342 25.2872291,149.199992 27.2872391,150.8 C29.2872491,152.400008 31.2872291,153.833327 33.2872391,155.1 C35.2872491,156.366673 37.3538951,157.33333 39.4872391,158 C41.6205831,158.66667 44.0205591,159 46.6872391,159 C53.3539391,158.866666 58.4872211,157.433347 62.0872391,154.7 C65.6872571,151.966653 68.3538971,147.60003 70.0872391,141.6 C70.7539091,137.866648 71.3205701,134.100019 71.7872391,130.3 C72.2539081,126.499981 72.4205731,122.733352 72.2872391,119 C72.1539051,115.266648 71.6872431,111.566685 70.8872391,107.9 C70.0872351,104.233315 68.7539151,100.600018 66.8872391,97 C65.5538991,94.733322 63.7872501,92.866674 61.5872391,91.4 C59.3872281,89.933326 57.1539171,89.2 54.8872391,89.2 C53.8205671,88.53333 52.9539091,88.366665 52.2872391,88.7 C51.6205691,89.033335 51.0205751,89.266666 50.4872391,89.4 C45.4205471,89.4 40.7205941,90.233325 36.3872391,91.9 C32.0538841,93.566675 28.9539151,96.666644 27.0872391,101.2 C26.6872371,101.86667 26.3872401,102.233333 26.1872391,102.3 C25.9872381,102.366667 25.5539091,102.4 24.8872391,102.4 L23.4872391,101.4 L23.2872391,89.8 C23.2872391,89.13333 23.0539081,88.433337 22.5872391,87.7 C22.1205701,86.966663 21.5539091,86.6 20.8872391,86.6 L4.68723912,86.6 L5.08723912,202 L19.2872391,201.8 C19.9539091,201.8 20.2872391,200.933342 20.2872391,199.2 L20.8872391,155.2 L20.6872391,145.8 Z M26.4872391,114 C26.8872411,113.466664 27.4205691,112.900003 28.0872391,112.3 C28.7539091,111.699997 29.6872331,111.4 30.8872391,111.4 C31.5539091,111.4 32.9205621,110.900005 34.9872391,109.9 C37.0539161,108.899995 39.4205591,108.433333 42.0872391,108.5 C44.7539191,108.566667 47.5205581,109.666656 50.3872391,111.8 C53.2539201,113.933344 55.8205611,118.066636 58.0872391,124.2 C57.8205711,127.000014 57.0205791,129.666654 55.6872391,132.2 C54.3538991,134.733346 52.5872501,136.899991 50.3872391,138.7 C48.1872281,140.500009 45.7539191,141.833329 43.0872391,142.7 C40.4205591,143.566671 37.6872531,143.66667 34.8872391,143 C32.6205611,142.466664 30.5872481,141.000012 28.7872391,138.6 C26.9872301,136.199988 25.6205771,133.500015 24.6872391,130.5 C23.7539011,127.499985 23.3872381,124.466682 23.5872391,121.4 C23.7872401,118.333318 24.7538971,115.866676 26.4872391,114 Z M73.4872391,147.4 L89.6872391,134.2 C90.2205751,134.2 90.6205711,133.933336 90.8872391,133.4 C91.1539071,132.866664 91.3872381,132.26667 91.5872391,131.6 C91.7872401,130.93333 92.0205711,130.26667 92.2872391,129.6 C92.5539071,128.93333 92.8872371,128.466668 93.2872391,128.2 C93.6872411,122.19997 93.6539081,116.400028 93.1872391,110.8 C92.7205701,105.199972 91.2539181,100.200022 88.7872391,95.8 C86.3205601,91.399978 82.6205971,87.800014 77.6872391,85 C72.7538811,82.199986 66.0872811,80.600002 57.6872391,80.2 L45.8872391,85.8 C46.0205731,85.8 46.6539001,85.733334 47.7872391,85.6 C48.9205781,85.466666 50.1872321,85.300001 51.5872391,85.1 C52.9872461,84.899999 54.3205661,84.733334 55.5872391,84.6 C56.8539121,84.466666 57.8205691,84.4 58.4872391,84.4 C61.8205891,84.266666 64.6205611,85.433321 66.8872391,87.9 C69.1539171,90.366679 70.9538991,93.499981 72.2872391,97.3 C73.6205791,101.100019 74.5539031,105.33331 75.0872391,110 C75.6205751,114.66669 75.8872391,119.199978 75.8872391,123.6 C75.8872391,128.000022 75.6539081,132.033315 75.1872391,135.7 C74.7205701,139.366685 74.1539091,142.066658 73.4872391,143.8 L73.4872391,147.4 Z M25.6872391,159.2 C25.4205711,168.000044 25.2539061,174.866642 25.1872391,179.8 C25.1205721,184.733358 25.1205721,188.399988 25.1872391,190.8 C25.2539061,193.200012 25.3539051,194.633331 25.4872391,195.1 C25.6205731,195.566669 25.8872371,195.8 26.2872391,195.8 L28.4872391,195.8 C29.8205791,194.599994 31.3205641,193.533338 32.9872391,192.6 C34.6539141,191.666662 36.1872321,190.733338 37.5872391,189.8 C38.9872461,188.866662 40.1539011,187.833339 41.0872391,186.7 C42.0205771,185.566661 42.4872391,184.200008 42.4872391,182.6 L42.2872391,166.2 C42.2872391,164.86666 41.5205801,163.86667 39.9872391,163.2 C38.4538981,162.53333 36.7205821,161.933336 34.7872391,161.4 C32.8538961,160.866664 30.9872481,160.26667 29.1872391,159.6 C27.3872301,158.93333 26.2205751,157.800008 25.6872391,156.2 L25.6872391,159.2 Z M31.8872391,115.2 C31.3539031,115.86667 30.8205751,116.466664 30.2872391,117 C29.7539031,117.533336 29.1539091,118.066664 28.4872391,118.6 C27.1538991,119.400004 26.5539051,120.966655 26.6872391,123.3 C26.8205731,125.633345 27.3539011,127.999988 28.2872391,130.4 C29.2205771,132.800012 30.3872321,134.866658 31.7872391,136.6 C33.1872461,138.333342 34.5538991,139.000002 35.8872391,138.6 C40.1539271,138.466666 43.2205631,137.700007 45.0872391,136.3 C46.9539151,134.899993 48.5538991,133.666672 49.8872391,132.6 C50.9539111,131.26666 51.6205711,129.833341 51.8872391,128.3 C52.1539071,126.766659 52.6205691,125.400006 53.2872391,124.2 C53.2872391,123.666664 52.6872451,122.500009 51.4872391,120.7 C50.2872331,118.899991 48.7205821,117.233341 46.7872391,115.7 C44.8538961,114.166659 42.6205851,113.200002 40.0872391,112.8 C37.5538931,112.399998 34.8205871,113.19999 31.8872391,115.2 Z M42.8872391,67.2 L41.8872391,67.2 C39.3538931,67.333334 36.9205841,67.300001 34.5872391,67.1 C32.2538941,66.899999 29.9539171,67.333328 27.6872391,68.4 C24.6205571,70.133342 21.4872551,71.966657 18.2872391,73.9 C15.0872231,75.833343 12.0872531,77.666658 9.28723912,79.4 C8.62056912,79.933336 8.08724112,80.499997 7.68723912,81.1 C7.28723712,81.700003 7.42056912,82.266664 8.08723912,82.8 L18.4872391,82.6 C19.8205791,82.6 20.8872351,82.466668 21.6872391,82.2 C22.4872431,81.933332 23.4872331,81.933332 24.6872391,82.2 C24.4205711,81.933332 25.1538971,81.13334 26.8872391,79.8 C28.6205811,78.46666 30.6205611,77.033341 32.8872391,75.5 C35.1539171,73.966659 37.2872291,72.500007 39.2872391,71.1 C41.2872491,69.699993 42.4872371,68.733336 42.8872391,68.2 L42.8872391,67.2 Z M47.6872391,70.6 C47.6872391,70.866668 47.4872411,71.199998 47.0872391,71.6 C46.9539051,71.733334 46.8205731,71.8 46.6872391,71.8 C43.2205551,73.533342 40.1539191,75.299991 37.4872391,77.1 C34.8205591,78.900009 32.0872531,80.666658 29.2872391,82.4 C28.6205691,83.06667 28.0539081,83.866662 27.5872391,84.8 C27.1205701,85.733338 26.8872391,86.466664 26.8872391,87 C26.8872391,88.33334 26.9205721,89.299997 26.9872391,89.9 C27.0539061,90.500003 27.4205691,91.066664 28.0872391,91.6 C28.4872411,91.6 28.9205701,91.500001 29.3872391,91.3 C29.8539081,91.099999 30.7872321,90.566671 32.1872391,89.7 C33.5872461,88.833329 35.5872261,87.533342 38.1872391,85.8 C40.7872521,84.066658 44.4205491,81.733348 49.0872391,78.8 C49.0872391,76.933324 49.1872381,75.366673 49.3872391,74.1 C49.5872401,72.833327 49.0205791,71.666672 47.6872391,70.6 Z M130.170103,116.969232 C130.703439,116.302562 131.036769,115.902566 131.170103,115.769232 C131.303437,115.635898 131.703433,115.569232 132.370103,115.569232 C132.370103,114.50256 132.803432,113.602569 133.670103,112.869232 C134.536774,112.135895 135.303433,111.569234 135.970103,111.169232 C137.170109,109.969226 138.336764,108.835904 139.470103,107.769232 C140.603442,106.70256 141.703431,105.835902 142.770103,105.169232 C143.036771,104.902564 143.236769,104.6359 143.370103,104.369232 L143.770103,103.569232 C143.903437,103.302564 143.970103,103.0359 143.970103,102.769232 L143.970103,95.5692316 C143.836769,95.4358976 143.303441,94.2025766 142.370103,91.8692316 C141.436765,89.5358866 140.436775,86.9025796 139.370103,83.9692316 C138.303431,81.0358836 137.303441,78.3025776 136.370103,75.7692316 C135.436765,73.2358856 134.903437,71.7025676 134.770103,71.1692316 C134.770103,70.6358956 134.636771,70.2692326 134.370103,70.0692316 C134.103435,69.8692306 133.436775,70.1025616 132.370103,70.7692316 C131.303431,71.4359016 129.73678,72.6358896 127.670103,74.3692316 C125.603426,76.1025736 122.703455,78.5692156 118.970103,81.7692316 C121.236781,91.2359456 123.536758,98.8025366 125.870103,104.469232 C128.203448,110.135927 129.636767,114.302552 130.170103,116.969232 Z M222.636772,74 C218.90342,76.533346 215.836784,79.266652 213.436772,82.2 C211.03676,85.133348 208.970114,88.333316 207.236772,91.8 C205.50343,96.066688 203.50345,100.799974 201.236772,106 C198.970094,111.200026 196.770116,116.333308 194.636772,121.4 C192.503428,126.466692 190.603447,131.266644 188.936772,135.8 C187.270097,140.333356 186.170108,143.999986 185.636772,146.8 C184.970102,147.46667 184.803437,147.899999 185.136772,148.1 C185.470107,148.300001 185.636772,148.666664 185.636772,149.2 L186.636772,148.2 C188.503448,146.333324 190.370096,144.533342 192.236772,142.8 C194.103448,141.066658 196.170094,139.333342 198.436772,137.6 C204.0368,127.333282 208.736753,116.766721 212.536772,105.9 C216.336791,95.033279 219.970088,84.400052 223.436772,74 L222.636772,74 Z M190.595105,76 C190.595105,76.533336 190.728437,76.933332 190.995105,77.2 C191.128439,77.333334 191.261771,77.4 191.395105,77.4 L202.195105,77.4 C203.261777,77.4 204.395099,77.233335 205.595105,76.9 C206.795111,76.566665 207.928433,76.73333 208.995105,77.4 C210.728447,77.133332 212.461763,76.33334 214.195105,75 C215.928447,73.66666 217.395099,72.466672 218.595105,71.4 C218.995107,70.73333 219.228438,70.133336 219.295105,69.6 C219.361772,69.066664 219.395105,68.533336 219.395105,68 C213.795077,68 209.661785,68.033333 206.995105,68.1 C204.328425,68.166667 202.261779,68.333332 200.795105,68.6 C199.328431,68.866668 198.028444,69.366663 196.895105,70.1 C195.761766,70.833337 193.928451,71.999992 191.395105,73.6 C190.995103,73.6 190.595107,73.866664 190.195105,74.4 C189.795103,74.933336 189.928435,75.466664 190.595105,76 Z M125.970103,68.2 C123.570091,67.53333 121.436779,67.166667 119.570103,67.1 C117.703427,67.033333 115.503449,67 112.970103,67 C111.236761,67.66667 109.570111,68.699993 107.970103,70.1 C106.370095,71.500007 104.903443,72.799994 103.570103,74 C103.170101,74.533336 102.970103,75.066664 102.970103,75.6 C102.970103,76.133336 103.170101,76.4 103.570103,76.4 C105.703447,76.4 108.003424,76.300001 110.470103,76.1 C112.936782,75.899999 114.970095,76.533326 116.570103,78 C118.836781,76.533326 120.503431,75.033341 121.570103,73.5 C122.636775,71.966659 124.103427,70.20001 125.970103,68.2 Z M171.495104,105 C169.628428,106.200006 168.09511,107.366661 166.895104,108.5 C165.695098,109.633339 164.16178,110.733328 162.295104,111.8 C161.4951,112.600004 161.061771,113.399996 160.995104,114.2 C160.928437,115.000004 160.995103,115.799996 161.195104,116.6 C161.395105,117.400004 161.628436,118.199996 161.895104,119 C162.161772,119.800004 162.295104,120.599996 162.295104,121.4 C162.82844,122.06667 163.128437,122.466666 163.195104,122.6 C163.261771,122.733334 163.295104,122.999998 163.295104,123.4 L164.495104,123.4 C165.161774,123.4 165.56177,123.366667 165.695104,123.3 C165.828438,123.233333 165.895104,123.000002 165.895104,122.6 C168.561784,116.866638 170.828428,111.00003 172.695104,105 L171.495104,105 Z M142.970103,109 C143.503439,109.400002 144.470096,109.666666 145.870103,109.8 C147.27011,109.933334 148.736762,110 150.270103,110 C151.803444,110 153.236763,109.933334 154.570103,109.8 C155.903443,109.666666 156.903433,109.400002 157.570103,109 C159.303445,108.466664 160.80343,107.833337 162.070103,107.1 C163.336776,106.366663 164.636763,105.066676 165.970103,103.2 C164.103427,102.53333 162.370111,102.166667 160.770103,102.1 C159.170095,102.033333 157.636777,102 156.170103,102 L152.870103,102 C151.203428,102 150.036773,102.599994 149.370103,103.8 C148.703433,104.46667 147.603444,105.233329 146.070103,106.1 C144.536762,106.966671 143.503439,107.933328 142.970103,109 Z M132.170103,121.4 C132.703439,121.4 133.103435,121.200002 133.370103,120.8 C133.503437,120.666666 133.570103,120.466668 133.570103,120.2 L133.570103,118 L132.170103,118 C131.903435,118.133334 131.703437,118.333332 131.570103,118.6 C131.170101,119.000002 130.970103,119.53333 130.970103,120.2 L132.170103,121.4 Z M228.462413,63.3090911 C228.462413,63.9757611 228.362414,65.2090821 228.162413,67.0090911 C227.962412,68.8091001 227.529083,70.0424211 226.862413,70.7090911 C226.329077,72.8424351 225.395753,75.7757391 224.062413,79.5090911 C222.729073,83.2424431 221.229088,87.3090691 219.562413,91.7090911 C217.895738,96.1091131 216.095756,100.709067 214.162413,105.509091 C212.22907,110.309115 210.429088,114.80907 208.762413,119.009091 C207.095738,123.209112 205.629086,126.975741 204.362413,130.309091 C203.09574,133.642441 202.262415,136.109083 201.862413,137.709091 L180.062413,156.109091 C178.862407,155.842423 176.995759,155.609092 174.462413,155.409091 C171.929067,155.20909 169.29576,155.109091 166.562413,155.109091 C163.829066,155.109091 161.295758,155.175757 158.962413,155.309091 C156.629068,155.442425 154.995751,155.709089 154.062413,156.109091 C153.395743,156.775761 152.962414,156.709095 152.762413,155.909091 C152.562412,155.109087 152.195749,154.509093 151.662413,154.109091 C150.995743,153.575755 150.195751,152.509099 149.262413,150.909091 L141.462413,157.309091 L141.262413,156.309091 L118.662413,156.309091 C118.795747,156.309091 118.229086,154.675774 116.962413,151.409091 C115.69574,148.142408 114.062423,143.975783 112.062413,138.909091 C110.062403,133.842399 107.862425,128.342454 105.462413,122.409091 C103.062401,116.475728 100.762424,110.809118 98.5624126,105.409091 C96.3624016,100.009064 94.4290876,95.3091111 92.7624126,91.3090911 C91.0957376,87.3090711 89.9957486,84.7757631 89.4624126,83.7090911 C88.9290766,82.6424191 88.8290776,81.7424281 89.1624126,81.0090911 C89.4957476,80.2757541 89.9957426,79.2424311 90.6624126,77.9090911 C94.2624306,75.1090771 97.5957306,72.5091031 100.662413,70.1090911 C103.729095,67.7090791 106.995729,65.1757711 110.462413,62.5090911 C115.129103,63.0424271 118.895732,63.3757571 121.762413,63.5090911 C124.629094,63.6424251 126.829072,63.7090911 128.362413,63.7090911 C129.895754,63.7090911 130.96241,63.6424251 131.562413,63.5090911 C132.162416,63.3757571 132.595745,63.1757591 132.862413,62.9090911 C134.062419,62.2424211 134.795745,61.9424241 135.062413,62.0090911 C135.329081,62.0757581 135.795743,62.6424191 136.462413,63.7090911 C136.462413,65.3090991 136.962408,67.7424081 137.962413,71.0090911 C138.962418,74.2757741 140.129073,77.6090741 141.462413,81.0090911 C142.795753,84.4091081 143.995741,87.4757441 145.062413,90.2090911 C146.129085,92.9424381 146.662413,94.6424211 146.662413,95.3090911 C146.662413,96.6424311 146.929077,97.4090901 147.462413,97.6090911 C147.995749,97.8090921 148.529077,97.9090911 149.062413,97.9090911 C153.595769,99.1090971 158.395721,99.1090971 163.462413,97.9090911 L169.062413,97.9090911 C171.195757,97.9090911 173.129071,96.9757671 174.862413,95.1090911 C176.595755,93.2424151 177.995741,91.0757701 179.062413,88.6090911 C180.129085,86.1424121 180.862411,83.6757701 181.262413,81.2090911 C181.662415,78.7424121 181.529083,76.8424311 180.862413,75.5090911 L196.662413,63.9090911 L228.462413,63.3090911 Z M158.370103,132.813334 C158.236769,129.213316 157.536776,125.513353 156.270103,121.713334 C155.00343,117.913315 152.970117,115.346674 150.170103,114.013334 C149.103431,113.479998 147.736778,113.213334 146.070103,113.213334 C144.403428,113.213334 143.036775,113.080002 141.970103,112.813334 C140.903431,112.813334 140.036773,112.846667 139.370103,112.913334 C138.703433,112.980001 138.036773,113.346664 137.370103,114.013334 C137.370103,114.54667 137.203438,115.113331 136.870103,115.713334 C136.536768,116.313337 136.370103,116.946664 136.370103,117.613334 C136.103435,118.14667 135.770105,119.179993 135.370103,120.713334 C134.970101,122.246675 134.470106,123.813326 133.870103,125.413334 C133.2701,127.013342 132.670106,128.413328 132.070103,129.613334 C131.4701,130.81334 130.903439,131.413334 130.370103,131.413334 C129.570099,131.813336 128.936772,131.580005 128.470103,130.713334 C128.003434,129.846663 127.636771,128.713341 127.370103,127.313334 C127.103435,125.913327 126.770105,124.480008 126.370103,123.013334 C125.970101,121.54666 125.436773,120.480004 124.770103,119.813334 C123.836765,116.879986 122.770109,113.713351 121.570103,110.313334 C120.370097,106.913317 119.103443,103.546684 117.770103,100.213334 C116.436763,96.8799836 115.170109,93.6800156 113.970103,90.6133336 C112.770097,87.5466516 111.703441,84.8800116 110.770103,82.6133336 C109.170095,80.7466576 107.603444,79.8799996 106.070103,80.0133336 C104.536762,80.1466676 102.570115,80.2133336 100.170103,80.2133336 C98.8367634,80.2133336 97.6367754,80.3133326 96.5701034,80.5133336 C95.5034314,80.7133346 94.6367734,81.3466616 93.9701034,82.4133336 L121.770103,151.213334 C126.170125,152.41334 129.470092,153.046667 131.670103,153.113334 C133.870114,153.180001 135.436765,152.980003 136.370103,152.513334 C137.303441,152.046665 137.836769,151.380005 137.970103,150.513334 C138.103437,149.646663 138.303435,148.813338 138.570103,148.013334 C139.236773,145.479988 140.103431,143.313343 141.170103,141.513334 C142.236775,139.713325 143.903425,137.946676 146.170103,136.213334 C146.570105,136.880004 147.136766,137.879994 147.870103,139.213334 C148.60344,140.546674 149.436765,141.879994 150.370103,143.213334 C151.303441,144.546674 152.203432,145.779995 153.070103,146.913334 C153.936774,148.046673 154.570101,148.746666 154.970103,149.013334 L171.370103,150.213334 C171.903439,150.213334 172.436767,150.246667 172.970103,150.313334 C173.503439,150.380001 174.103433,150.679998 174.770103,151.213334 C175.436773,150.679998 176.036767,150.080004 176.570103,149.413334 C177.103439,148.746664 177.636767,147.81334 178.170103,146.613334 C178.836773,145.14666 179.80343,142.846683 181.070103,139.713334 C182.336776,136.579985 183.770095,133.013354 185.370103,129.013334 C186.970111,125.013314 188.670094,120.880022 190.470103,116.613334 C192.270112,112.346646 193.970095,108.28002 195.570103,104.413334 C197.170111,100.546648 198.570097,97.1466816 199.770103,94.2133336 C200.970109,91.2799856 201.836767,89.2133396 202.370103,88.0133336 C203.303441,85.7466556 203.303441,83.4133456 202.370103,81.0133336 C199.970091,81.5466696 197.670114,81.8466666 195.470103,81.9133336 C193.270092,81.9800006 191.236779,82.0133336 189.370103,82.0133336 C188.303431,82.0133336 187.436773,82.1133326 186.770103,82.3133336 C186.103433,82.5133346 185.770103,83.2799936 185.770103,84.6133336 C183.236757,87.4133476 181.170111,90.6799816 179.570103,94.4133336 C177.970095,98.1466856 176.370111,101.546652 174.770103,104.613334 C174.236767,105.81334 173.436775,107.746654 172.370103,110.413334 C171.303431,113.080014 170.203442,115.81332 169.070103,118.613334 C167.936764,121.413348 166.903441,123.979989 165.970103,126.313334 C165.036765,128.646679 164.503437,130.013332 164.370103,130.413334 L158.370103,132.813334 Z M145.770103,143 C144.703431,144.466674 144.003438,145.899993 143.670103,147.3 C143.336768,148.700007 143.103437,149.933328 142.970103,151 C143.636773,150.33333 144.2701,149.733336 144.870103,149.2 C145.470106,148.666664 146.303431,147.933338 147.370103,147 C146.570099,145.399992 146.036771,144.066672 145.770103,143 Z M256.695746,54.4 C258.962424,55.333338 261.3624,55.733334 263.895746,55.6 C266.429092,55.466666 268.829068,55.4 271.095746,55.4 C271.629082,55.4 272.129077,55.466666 272.595746,55.6 C273.062415,55.733334 273.295746,56.13333 273.295746,56.8 C272.495742,57.46667 271.995747,59.566649 271.795746,63.1 C271.595745,66.633351 271.462413,70.899975 271.395746,75.9 C271.329079,80.900025 271.395745,86.299971 271.595746,92.1 C271.795747,97.900029 271.929079,103.46664 271.995746,108.8 C272.062413,114.13336 272.02908,118.866646 271.895746,123 C271.762412,127.133354 271.495748,129.999992 271.095746,131.6 L271.095746,132.8 L250.495746,150 C245.029052,151.066672 240.762428,151.766665 237.695746,152.1 C234.629064,152.433335 232.36242,152.6 230.895746,152.6 C229.429072,152.6 228.529081,152.500001 228.195746,152.3 C227.862411,152.099999 227.695746,151.866668 227.695746,151.6 L227.695746,68.4 C228.095748,67.866664 228.762408,67.26667 229.695746,66.6 C230.629084,65.93333 231.662407,65.233337 232.795746,64.5 C233.929085,63.766663 234.995741,63.133336 235.995746,62.6 C236.995751,62.066664 237.76241,61.666668 238.295746,61.4 C238.295746,60.866664 238.262413,60.366669 238.195746,59.9 C238.129079,59.433331 237.762416,59.2 237.095746,59.2 C234.695734,58.53333 232.662421,57.600006 230.995746,56.4 C229.329071,55.199994 228.229082,53.800008 227.695746,52.2 C226.629074,50.333324 226.02908,48.500009 225.895746,46.7 C225.762412,44.899991 225.96241,42.800012 226.495746,40.4 C227.29575,37.999988 228.729069,35.833343 230.795746,33.9 C232.862423,31.966657 235.195733,30.233341 237.795746,28.7 C240.395759,27.166659 242.995733,25.833339 245.595746,24.7 C248.195759,23.566661 250.42907,22.600004 252.295746,21.8 C254.42909,20.599994 255.895742,20.599994 256.695746,21.8 C259.095758,22.333336 261.395735,23.433325 263.595746,25.1 C265.795757,26.766675 267.562406,28.699989 268.895746,30.9 C270.229086,33.100011 271.029078,35.466654 271.295746,38 C271.562414,40.533346 271.029086,42.933322 269.695746,45.2 C269.695746,46.133338 269.062419,46.899997 267.795746,47.5 C266.529073,48.100003 265.129087,48.666664 263.595746,49.2 C262.062405,49.733336 260.595753,50.399996 259.195746,51.2 C257.795739,52.000004 256.962414,53.06666 256.695746,54.4 Z M267.495746,61.4 C267.095744,62.333338 265.895756,63.46666 263.895746,64.8 C261.895736,66.13334 259.82909,67.566659 257.695746,69.1 C255.562402,70.633341 253.729087,72.133326 252.195746,73.6 C250.662405,75.066674 250.295742,76.46666 251.095746,77.8 C251.095746,78.200002 251.062413,79.999984 250.995746,83.2 C250.929079,86.400016 250.795747,90.299977 250.595746,94.9 C250.395745,99.500023 250.195747,104.433307 249.995746,109.7 C249.795745,114.966693 249.662413,119.93331 249.595746,124.6 C249.529079,129.26669 249.495746,133.233317 249.495746,136.5 C249.495746,139.766683 249.629078,141.666664 249.895746,142.2 C249.895746,143.400006 250.129077,144.033333 250.595746,144.1 C251.062415,144.166667 251.629076,143.86667 252.295746,143.2 C253.362418,142.666664 254.529073,141.933338 255.795746,141 C257.062419,140.066662 258.362406,139.033339 259.695746,137.9 C261.029086,136.766661 262.262407,135.633339 263.395746,134.5 L266.295746,131.6 C266.562414,130.133326 266.795745,127.500019 266.995746,123.7 C267.195747,119.899981 267.329079,115.566691 267.395746,110.7 C267.462413,105.833309 267.495746,100.700027 267.495746,95.3 C267.495746,89.899973 267.462413,84.833357 267.395746,80.1 C267.329079,75.366643 267.295746,71.300017 267.295746,67.9 C267.295746,64.499983 267.362412,62.333338 267.495746,61.4 Z M233.495746,72 C233.495746,73.466674 233.462413,76.099981 233.395746,79.9 C233.329079,83.700019 233.262413,88.033309 233.195746,92.9 C233.129079,97.766691 233.02908,102.933306 232.895746,108.4 C232.762412,113.866694 232.662413,118.966643 232.595746,123.7 C232.529079,128.433357 232.462413,132.599982 232.395746,136.2 C232.329079,139.800018 232.295746,142.133328 232.295746,143.2 C232.295746,143.86667 232.329079,144.433331 232.395746,144.9 C232.462413,145.366669 232.829076,145.6 233.495746,145.6 C234.429084,145.6 235.562406,145.699999 236.895746,145.9 C238.229086,146.100001 239.529073,146.133334 240.795746,146 C242.062419,145.866666 243.129075,145.533336 243.995746,145 C244.862417,144.466664 245.295746,143.53334 245.295746,142.2 L245.295746,136.4 C245.295746,133.06665 245.329079,129.000024 245.395746,124.2 C245.462413,119.399976 245.562412,114.200028 245.695746,108.6 C245.82908,102.999972 245.929079,97.800024 245.995746,93 C246.062413,88.199976 246.129079,84.066684 246.195746,80.6 C246.262413,77.133316 246.362412,75.06667 246.495746,74.4 C246.229078,73.199994 245.429086,72.400002 244.095746,72 C242.762406,71.599998 241.329087,71.4 239.795746,71.4 C238.262405,71.4 236.862419,71.499999 235.595746,71.7 C234.329073,71.900001 233.62908,72 233.495746,72 Z M241.695746,54.4 C242.362416,54.4 243.162408,54.366667 244.095746,54.3 C245.029084,54.233333 245.829076,53.933336 246.495746,53.4 C247.562418,51.533324 248.595741,49.866674 249.595746,48.4 C250.595751,46.933326 251.095746,45.066678 251.095746,42.8 C250.429076,40.933324 249.295754,39.300007 247.695746,37.9 C246.095738,36.499993 244.395755,35.533336 242.595746,35 C240.795737,34.466664 238.962422,34.499997 237.095746,35.1 C235.22907,35.700003 233.629086,37.066656 232.295746,39.2 C231.229074,39.86667 230.62908,41.299989 230.495746,43.5 C230.362412,45.700011 230.629076,47.399994 231.295746,48.6 C233.695758,52.466686 237.16239,54.4 241.695746,54.4 Z M246.495746,29.8 C247.562418,30.46667 248.629074,31.266662 249.695746,32.2 C250.762418,33.133338 251.629076,33.93333 252.295746,34.6 C254.162422,36.466676 255.062413,38.899985 254.995746,41.9 C254.929079,44.900015 254.762414,47.533322 254.495746,49.8 C255.162416,49.8 255.595745,49.766667 255.795746,49.7 C255.995747,49.633333 256.295744,49.26667 256.695746,48.6 C258.029086,47.399994 259.29574,46.400004 260.495746,45.6 C261.695752,44.799996 262.829074,43.466676 263.895746,41.6 C265.095752,39.199988 265.329083,36.933344 264.595746,34.8 C263.862409,32.666656 262.729087,30.866674 261.195746,29.4 C259.662405,27.933326 257.995755,26.933336 256.195746,26.4 C254.395737,25.866664 253.09575,25.866664 252.295746,26.4 C251.229074,27.06667 250.262417,27.666664 249.395746,28.2 C248.529075,28.733336 247.562418,29.266664 246.495746,29.8 Z M252.295746,58 C251.09574,58.66667 250.09575,59.233331 249.295746,59.7 C248.495742,60.166669 247.562418,60.4 246.495746,60.4 L245.295746,60.4 C244.09574,61.600006 242.895752,62.566663 241.695746,63.3 C240.49574,64.033337 239.362418,64.999994 238.295746,66.2 L238.295746,68.4 C241.76243,68.4 244.529069,68.366667 246.595746,68.3 C248.662423,68.233333 250.562404,67.86667 252.295746,67.2 C253.895754,66.399996 255.362406,65.33334 256.695746,64 L260.295746,60.4 C259.229074,59.866664 257.895754,59.633333 256.295746,59.7 C254.695738,59.766667 253.362418,59.200006 252.295746,58 Z M292,126.6 C291.466664,123.399984 291.166667,120.033351 291.1,116.5 C291.033333,112.966649 291.066666,109.666682 291.2,106.6 C291.333334,103.533318 291.499999,100.833345 291.7,98.5 C291.900001,96.166655 292,94.600004 292,93.8 C292,92.199992 291.600004,91.06667 290.8,90.4 C289.999996,89.73333 288.900007,89.300001 287.5,89.1 C286.099993,88.899999 284.40001,88.833333 282.4,88.9 C280.39999,88.966667 278.200012,89 275.8,89 C274.599994,89 273.700003,88.966667 273.1,88.9 C272.499997,88.833333 272.2,88.46667 272.2,87.8 L272.2,70.2 C272.2,69.53333 272.399998,68.933336 272.8,68.4 C273.200002,67.866664 273.4,67.333336 273.4,66.8 L274.4,66.8 C276.933346,66.8 278.899993,66.166673 280.3,64.9 C281.700007,63.633327 283.333324,62.733336 285.2,62.2 C285.86667,61.399996 286.633329,60.566671 287.5,59.7 L289.8,57.4 C290.866672,56.73333 291.499999,56.133336 291.7,55.6 C291.900001,55.066664 292,54.46667 292,53.8 L292,23.2 C291.466664,22.133328 291.266666,21.200004 291.4,20.4 C291.533334,19.599996 292.199994,18.666672 293.4,17.6 C294.600006,15.733324 296.166657,14.13334 298.1,12.8 C300.033343,11.46666 302.033323,10.166673 304.1,8.9 C306.166677,7.633327 308.133324,6.33334 310,5 C311.866676,3.66666 313.333328,2.00001 314.4,0 L338,1.8 C338,15.1334 337.766669,25.733294 337.3,33.6 C336.833331,41.466706 336.6,46.333324 336.6,48.2 L336.6,50.4 C337.133336,51.06667 337.933328,51.233335 339,50.9 C340.066672,50.566665 341.199994,50.4 342.4,50.4 L350.6,50.4 C351.800006,50.4 352.899995,50.599998 353.9,51 C354.900005,51.400002 355.73333,51.6 356.4,51.6 C356.666668,51.6 356.999998,51.799998 357.4,52.2 C357.533334,52.333334 357.6,52.466666 357.6,52.6 L357.6,53.8 C356.93333,57.266684 356.366669,60.533318 355.9,63.6 C355.433331,66.666682 355.2,69.599986 355.2,72.4 C355.86667,74.933346 355.733338,76.666662 354.8,77.6 C353.866662,78.533338 352.466676,79.533328 350.6,80.6 C348.733324,81.26667 346.966675,82.133328 345.3,83.2 C343.633325,84.266672 341.866676,85.399994 340,86.6 L332.6,89.8 C332.066664,97.400038 332.566659,103.033315 334.1,106.7 C335.633341,110.366685 337.833319,112.666662 340.7,113.6 C343.566681,114.533338 346.866648,114.300007 350.6,112.9 C354.333352,111.499993 358.19998,109.46668 362.2,106.8 C364.066676,105.599994 365.899991,104.400006 367.7,103.2 C369.500009,101.999994 371.599988,100.800006 374,99.6 C374.66667,99.6 375.066666,99.433335 375.2,99.1 C375.333334,98.766665 375.666664,98.93333 376.2,99.6 C376.86667,99.6 377.266666,99.833331 377.4,100.3 C377.533334,100.766669 377.6,101.33333 377.6,102 L377.6,120.8 C377.6,122.533342 377.100005,123.966661 376.1,125.1 C375.099995,126.233339 374.000006,127.066664 372.8,127.6 L357.6,137 C359.60001,136.733332 359.466678,137.199994 357.2,138.4 C354.933322,139.600006 351.46669,140.86666 346.8,142.2 C342.13331,143.53334 336.80003,144.666662 330.8,145.6 C324.79997,146.533338 319.033361,146.633337 313.5,145.9 C307.966639,145.166663 303.166687,143.366681 299.1,140.5 C295.033313,137.633319 292.66667,133.000032 292,126.6 Z M312,70.2 C310.266658,68.999994 309.200002,68.133336 308.8,67.6 C308.533332,67.199998 308.4,66.933334 308.4,66.8 C308.4,59.066628 308.666664,52.466694 309.2,47 C309.733336,41.533306 310.099999,37.033351 310.3,33.5 C310.500001,29.966649 310.26667,27.366675 309.6,25.7 C308.93333,24.033325 307.466678,23.2 305.2,23.2 C303.86666,22.666664 302.366675,22.466666 300.7,22.6 C299.033325,22.733334 297.333342,23.399994 295.6,24.6 L295.6,70.2 C294.93333,70.2 294.133338,70.000002 293.2,69.6 C292.266662,69.199998 291.533336,69 291,69 C289.133324,69 287.366675,69.033333 285.7,69.1 C284.033325,69.166667 282.266676,69.53333 280.4,70.2 C279.199994,70.2 278.133338,70.499997 277.2,71.1 C276.266662,71.700003 275.8,72.599994 275.8,73.8 C275.8,75.80001 275.533336,77.766657 275,79.7 C274.466664,81.633343 274.733328,83.533324 275.8,85.4 C279.266684,85.4 282.766649,85.599998 286.3,86 C289.833351,86.400002 293.399982,86.6 297,86.6 C297,87.26667 297.133332,87.833331 297.4,88.3 C297.666668,88.766669 297.533336,89 297,89 C297.133334,91.133344 297.066668,93.599986 296.8,96.4 C296.533332,99.200014 296.233335,102.099985 295.9,105.1 C295.566665,108.100015 295.333334,111.066652 295.2,114 C295.066666,116.933348 295.199998,119.599988 295.6,122 C295.333332,124.533346 295.899993,127.033321 297.3,129.5 C298.700007,131.966679 300.499989,134.166657 302.7,136.1 C304.900011,138.033343 307.299987,139.633327 309.9,140.9 C312.500013,142.166673 314.79999,142.8 316.8,142.8 C319.333346,142.933334 322.133318,142.900001 325.2,142.7 C328.266682,142.499999 331.299985,142.100003 334.3,141.5 C337.300015,140.899997 340.13332,140.033339 342.8,138.9 C345.46668,137.766661 347.733324,136.400008 349.6,134.8 C350.133336,134.13333 350.466666,133.533336 350.6,133 C350.733334,132.466664 351.066664,131.86667 351.6,131.2 L351.6,119.2 C351.199998,119.2 350.733336,119.466664 350.2,120 C349.933332,120.266668 349.733334,120.533332 349.6,120.8 C348.93333,121.46667 348.300003,121.999998 347.7,122.4 C347.099997,122.800002 346.533336,123 346,123 C344.799994,124.200006 343.400008,125.199996 341.8,126 C340.199992,126.800004 338.800006,127.799994 337.6,129 C333.199978,131.00001 329.366683,131.633337 326.1,130.9 C322.833317,130.166663 320.066678,128.633345 317.8,126.3 C315.533322,123.966655 313.700007,121.066684 312.3,117.6 C310.899993,114.133316 309.900003,110.633351 309.3,107.1 C308.699997,103.566649 308.433333,100.266682 308.5,97.2 C308.566667,94.133318 308.93333,91.800008 309.6,90.2 C309.6,87.799988 310.399992,86.200004 312,85.4 C313.600008,84.599996 315.599988,84.2 318,84.2 L328.4,84.2 C330.266676,84.86667 331.499997,84.900003 332.1,84.3 C332.700003,83.699997 333,82.466676 333,80.6 C333,78.999992 332.966667,77.500007 332.9,76.1 C332.833333,74.699993 332.533336,73.133342 332,71.4 L330.6,70.2 C330.6,69.933332 330.533334,69.666668 330.4,69.4 L329.6,67.8 C327.333322,67.266664 325.20001,67.133332 323.2,67.4 C321.19999,67.666668 319.066678,67.8 316.8,67.8 C315.599994,67.8 314.66667,68.033331 314,68.5 C313.33333,68.966669 312.66667,69.53333 312,70.2 Z M313.2,64.4 C313.86667,63.73333 314.266666,63.366667 314.4,63.3 C314.533334,63.233333 314.866664,63.2 315.4,63.2 C316.73334,61.86666 317.933328,60.933336 319,60.4 L322.6,58.6 C324.333342,57.399994 326.033325,56.400004 327.7,55.6 C329.366675,54.799996 330.799994,53.466676 332,51.6 C332,50.93333 332.166665,50.533334 332.5,50.4 C332.833335,50.266666 333,49.86667 333,49.2 C333.266668,46.666654 333.499999,43.800016 333.7,40.6 C333.900001,37.399984 334.033333,34.200016 334.1,31 C334.166667,27.799984 334.2,24.633349 334.2,21.5 L334.2,9.2 L333,10.4 C332.866666,10.533334 332.533336,10.6 332,10.6 C331.066662,11.000002 329.766675,11.899993 328.1,13.3 C326.433325,14.700007 324.733342,16.133326 323,17.6 C321.266658,19.066674 319.700007,20.366661 318.3,21.5 C316.899993,22.633339 315.933336,23.2 315.4,23.2 C314.866664,23.2 314.366669,23.466664 313.9,24 C313.433331,24.533336 313.2,25.066664 313.2,25.6 C312.799998,30.400024 312.500001,34.599982 312.3,38.2 C312.099999,41.800018 312,45.066652 312,48 C312,50.933348 312.099999,53.699987 312.3,56.3 C312.500001,58.900013 312.799998,61.599986 313.2,64.4 Z M343.6,120.8 C342.93333,119.999996 342.533334,119.433335 342.4,119.1 C342.266666,118.766665 341.86667,118.799998 341.2,119.2 C338.933322,119.066666 336.866676,118.366673 335,117.1 C333.133324,115.833327 331.666672,114.333342 330.6,112.6 C330.333332,111.399994 330.133334,110.13334 330,108.8 C329.866666,107.46666 329.733334,106.000008 329.6,104.4 C329.466666,102.799992 329.300001,100.966677 329.1,98.9 C328.899999,96.833323 328.666668,94.333348 328.4,91.4 C328.4,90.73333 328.166669,90.166669 327.7,89.7 C327.233331,89.233331 326.66667,89 326,89 C325.599998,88.866666 325.06667,88.666668 324.4,88.4 C323.73333,88.266666 322.800006,88.133334 321.6,88 C320.399994,87.866666 318.80001,87.8 316.8,87.8 C314.399988,87.8 313.2,88.999988 313.2,91.4 C312.53333,97.133362 312.53333,102.366643 313.2,107.1 C313.86667,111.833357 315.066658,115.799984 316.8,119 C318.533342,122.200016 320.866652,124.433327 323.8,125.7 C326.733348,126.966673 330.19998,126.866674 334.2,125.4 C335.933342,124.73333 337.46666,123.966671 338.8,123.1 C340.13334,122.233329 341.733324,121.46667 343.6,120.8 Z M374,105.4 C372.799994,105.4 371.86667,105.466666 371.2,105.6 C370.53333,105.733334 369.86667,106.13333 369.2,106.8 C368.133328,107.200002 366.966673,107.899995 365.7,108.9 C364.433327,109.900005 362.933342,110.666664 361.2,111.2 C359.333324,112.53334 357.866672,113.86666 356.8,115.2 C355.733328,116.53334 355.2,118.399988 355.2,120.8 L355.2,131.2 C355.2,132.400006 355.433331,133.066666 355.9,133.2 C356.366669,133.333334 356.93333,133.06667 357.6,132.4 C359.200008,131.866664 360.499995,131.26667 361.5,130.6 C362.500005,129.93333 363.433329,129.233337 364.3,128.5 C365.166671,127.766663 366.066662,127.133336 367,126.6 C367.933338,126.066664 369.133326,125.666668 370.6,125.4 C371.666672,124.199994 372.499997,123.200004 373.1,122.4 C373.700003,121.599996 374,120.266676 374,118.4 L374,105.4 Z M330.6,3.4 C327.133316,2.73333 324.633341,2.566665 323.1,2.9 C321.566659,3.233335 320.200006,3.4 319,3.4 L316.8,3.4 C315.999996,4.06667 314.633343,5.099993 312.7,6.5 C310.766657,7.900007 308.766677,9.366659 306.7,10.9 C304.633323,12.433341 302.733342,13.833327 301,15.1 C299.266658,16.366673 298.266668,17.199998 298,17.6 C297.466664,18.133336 297.366665,18.633331 297.7,19.1 C298.033335,19.566669 298.466664,19.8 299,19.8 L314.4,19.8 L315,19.2 L315.8,18.8 C316.066668,18.666666 316.399998,18.6 316.8,18.6 C319.066678,16.866658 321.299989,15.133342 323.5,13.4 C325.700011,11.666658 327.733324,9.933342 329.6,8.2 C330.133336,7.53333 330.699997,6.86667 331.3,6.2 C331.900003,5.53333 332.466664,4.600006 333,3.4 L330.6,3.4 Z M351.6,59.8 C351.066664,60.200002 350.533336,60.433333 350,60.5 C349.466664,60.566667 348.86667,60.6 348.2,60.6 C347.133328,61.93334 346.000006,62.93333 344.8,63.6 L341.2,65.6 C340.133328,66.26667 339.26667,66.899997 338.6,67.5 C337.93333,68.100003 337.6,68.999994 337.6,70.2 C337.066664,72.066676 336.766667,73.933324 336.7,75.8 C336.633333,77.666676 336.6,79.733322 336.6,82 C336.6,82.66667 336.833331,83.166665 337.3,83.5 C337.766669,83.833335 338.33333,83.733336 339,83.2 C340.733342,81.86666 342.26666,80.700005 343.6,79.7 C344.93334,78.699995 346.466658,77.933336 348.2,77.4 L349.5,76.1 C349.700001,75.899999 350.066664,75.46667 350.6,74.8 C351.133336,74.266664 351.599998,73.700003 352,73.1 C352.400002,72.499997 352.26667,71.933336 351.6,71.4 L351.6,59.8 Z M325,63.2 C326.066672,63.86667 327.199994,64.266666 328.4,64.4 C329.600006,64.533334 330.799994,64.93333 332,65.6 C332.533336,65.6 333.233329,65.566667 334.1,65.5 C334.966671,65.433333 335.4,65.06667 335.4,64.4 C337.266676,63.333328 339.033325,62.366671 340.7,61.5 C342.366675,60.633329 344.133324,59.666672 346,58.6 C346.533336,57.93333 347.099997,57.366669 347.7,56.9 C348.300003,56.433331 348.93333,56.2 349.6,56.2 C350.26667,56.2 350.6,55.400008 350.6,53.8 L343.6,53.8 C342.399994,53.8 340.966675,53.866666 339.3,54 C337.633325,54.133334 335.933342,54.53333 334.2,55.2 C333.133328,55.733336 331.966673,56.466662 330.7,57.4 C329.433327,58.333338 327.866676,59.13333 326,59.8 C325.466664,60.200002 325.166667,60.533332 325.1,60.8 C325.033333,61.066668 325,61.86666 325,63.2 Z M287.4,65.6 C289.666678,64.93333 290.966665,64.466668 291.3,64.2 C291.633335,63.933332 291.533336,63.266672 291,62.2 C290.33333,62.733336 289.733336,63.133332 289.2,63.4 C288.666664,63.666668 288.06667,64.399994 287.4,65.6 Z M379.304254,126.6 C378.770918,123.399984 378.470921,120.033351 378.404254,116.5 C378.337587,112.966649 378.37092,109.666682 378.504254,106.6 C378.637588,103.533318 378.804253,100.833345 379.004254,98.5 C379.204255,96.166655 379.304254,94.600004 379.304254,93.8 C379.304254,92.199992 378.904258,91.06667 378.104254,90.4 C377.30425,89.73333 376.204261,89.300001 374.804254,89.1 C373.404247,88.899999 371.704264,88.833333 369.704254,88.9 C367.704244,88.966667 365.504266,89 363.104254,89 C361.904248,89 361.004257,88.966667 360.404254,88.9 C359.804251,88.833333 359.504254,88.46667 359.504254,87.8 L359.504254,70.2 C359.504254,69.53333 359.704252,68.933336 360.104254,68.4 C360.504256,67.866664 360.704254,67.333336 360.704254,66.8 L361.704254,66.8 C364.2376,66.8 366.204247,66.166673 367.604254,64.9 C369.004261,63.633327 370.637578,62.733336 372.504254,62.2 C373.170924,61.399996 373.937583,60.566671 374.804254,59.7 L377.104254,57.4 C378.170926,56.73333 378.804253,56.133336 379.004254,55.6 C379.204255,55.066664 379.304254,54.46667 379.304254,53.8 L379.304254,23.2 C378.770918,22.133328 378.57092,21.200004 378.704254,20.4 C378.837588,19.599996 379.504248,18.666672 380.704254,17.6 C381.90426,15.733324 383.470911,14.13334 385.404254,12.8 C387.337597,11.46666 389.337577,10.166673 391.404254,8.9 C393.470931,7.633327 395.437578,6.33334 397.304254,5 C399.17093,3.66666 400.637582,2.00001 401.704254,0 L425.304254,1.8 C425.304254,15.1334 425.070923,25.733294 424.604254,33.6 C424.137585,41.466706 423.904254,46.333324 423.904254,48.2 L423.904254,50.4 C424.43759,51.06667 425.237582,51.233335 426.304254,50.9 C427.370926,50.566665 428.504248,50.4 429.704254,50.4 L437.904254,50.4 C439.10426,50.4 440.204249,50.599998 441.204254,51 C442.204259,51.400002 443.037584,51.6 443.704254,51.6 C443.970922,51.6 444.304252,51.799998 444.704254,52.2 C444.837588,52.333334 444.904254,52.466666 444.904254,52.6 L444.904254,53.8 C444.237584,57.266684 443.670923,60.533318 443.204254,63.6 C442.737585,66.666682 442.504254,69.599986 442.504254,72.4 C443.170924,74.933346 443.037592,76.666662 442.104254,77.6 C441.170916,78.533338 439.77093,79.533328 437.904254,80.6 C436.037578,81.26667 434.270929,82.133328 432.604254,83.2 C430.937579,84.266672 429.17093,85.399994 427.304254,86.6 L419.904254,89.8 C419.370918,97.400038 419.870913,103.033315 421.404254,106.7 C422.937595,110.366685 425.137573,112.666662 428.004254,113.6 C430.870935,114.533338 434.170902,114.300007 437.904254,112.9 C441.637606,111.499993 445.504234,109.46668 449.504254,106.8 C451.37093,105.599994 453.204245,104.400006 455.004254,103.2 C456.804263,101.999994 458.904242,100.800006 461.304254,99.6 C461.970924,99.6 462.37092,99.433335 462.504254,99.1 C462.637588,98.766665 462.970918,98.93333 463.504254,99.6 C464.170924,99.6 464.57092,99.833331 464.704254,100.3 C464.837588,100.766669 464.904254,101.33333 464.904254,102 L464.904254,120.8 C464.904254,122.533342 464.404259,123.966661 463.404254,125.1 C462.404249,126.233339 461.30426,127.066664 460.104254,127.6 L444.904254,137 C446.904264,136.733332 446.770932,137.199994 444.504254,138.4 C442.237576,139.600006 438.770944,140.86666 434.104254,142.2 C429.437564,143.53334 424.104284,144.666662 418.104254,145.6 C412.104224,146.533338 406.337615,146.633337 400.804254,145.9 C395.270893,145.166663 390.470941,143.366681 386.404254,140.5 C382.337567,137.633319 379.970924,133.000032 379.304254,126.6 Z M399.304254,70.2 C397.570912,68.999994 396.504256,68.133336 396.104254,67.6 C395.837586,67.199998 395.704254,66.933334 395.704254,66.8 C395.704254,59.066628 395.970918,52.466694 396.504254,47 C397.03759,41.533306 397.404253,37.033351 397.604254,33.5 C397.804255,29.966649 397.570924,27.366675 396.904254,25.7 C396.237584,24.033325 394.770932,23.2 392.504254,23.2 C391.170914,22.666664 389.670929,22.466666 388.004254,22.6 C386.337579,22.733334 384.637596,23.399994 382.904254,24.6 L382.904254,70.2 C382.237584,70.2 381.437592,70.000002 380.504254,69.6 C379.570916,69.199998 378.83759,69 378.304254,69 C376.437578,69 374.670929,69.033333 373.004254,69.1 C371.337579,69.166667 369.57093,69.53333 367.704254,70.2 C366.504248,70.2 365.437592,70.499997 364.504254,71.1 C363.570916,71.700003 363.104254,72.599994 363.104254,73.8 C363.104254,75.80001 362.83759,77.766657 362.304254,79.7 C361.770918,81.633343 362.037582,83.533324 363.104254,85.4 C366.570938,85.4 370.070903,85.599998 373.604254,86 C377.137605,86.400002 380.704236,86.6 384.304254,86.6 C384.304254,87.26667 384.437586,87.833331 384.704254,88.3 C384.970922,88.766669 384.83759,89 384.304254,89 C384.437588,91.133344 384.370922,93.599986 384.104254,96.4 C383.837586,99.200014 383.537589,102.099985 383.204254,105.1 C382.870919,108.100015 382.637588,111.066652 382.504254,114 C382.37092,116.933348 382.504252,119.599988 382.904254,122 C382.637586,124.533346 383.204247,127.033321 384.604254,129.5 C386.004261,131.966679 387.804243,134.166657 390.004254,136.1 C392.204265,138.033343 394.604241,139.633327 397.204254,140.9 C399.804267,142.166673 402.104244,142.8 404.104254,142.8 C406.6376,142.933334 409.437572,142.900001 412.504254,142.7 C415.570936,142.499999 418.604239,142.100003 421.604254,141.5 C424.604269,140.899997 427.437574,140.033339 430.104254,138.9 C432.770934,137.766661 435.037578,136.400008 436.904254,134.8 C437.43759,134.13333 437.77092,133.533336 437.904254,133 C438.037588,132.466664 438.370918,131.86667 438.904254,131.2 L438.904254,119.2 C438.504252,119.2 438.03759,119.466664 437.504254,120 C437.237586,120.266668 437.037588,120.533332 436.904254,120.8 C436.237584,121.46667 435.604257,121.999998 435.004254,122.4 C434.404251,122.800002 433.83759,123 433.304254,123 C432.104248,124.200006 430.704262,125.199996 429.104254,126 C427.504246,126.800004 426.10426,127.799994 424.904254,129 C420.504232,131.00001 416.670937,131.633337 413.404254,130.9 C410.137571,130.166663 407.370932,128.633345 405.104254,126.3 C402.837576,123.966655 401.004261,121.066684 399.604254,117.6 C398.204247,114.133316 397.204257,110.633351 396.604254,107.1 C396.004251,103.566649 395.737587,100.266682 395.804254,97.2 C395.870921,94.133318 396.237584,91.800008 396.904254,90.2 C396.904254,87.799988 397.704246,86.200004 399.304254,85.4 C400.904262,84.599996 402.904242,84.2 405.304254,84.2 L415.704254,84.2 C417.57093,84.86667 418.804251,84.900003 419.404254,84.3 C420.004257,83.699997 420.304254,82.466676 420.304254,80.6 C420.304254,78.999992 420.270921,77.500007 420.204254,76.1 C420.137587,74.699993 419.83759,73.133342 419.304254,71.4 L417.904254,70.2 C417.904254,69.933332 417.837588,69.666668 417.704254,69.4 L416.904254,67.8 C414.637576,67.266664 412.504264,67.133332 410.504254,67.4 C408.504244,67.666668 406.370932,67.8 404.104254,67.8 C402.904248,67.8 401.970924,68.033331 401.304254,68.5 C400.637584,68.966669 399.970924,69.53333 399.304254,70.2 Z M400.504254,64.4 C401.170924,63.73333 401.57092,63.366667 401.704254,63.3 C401.837588,63.233333 402.170918,63.2 402.704254,63.2 C404.037594,61.86666 405.237582,60.933336 406.304254,60.4 L409.904254,58.6 C411.637596,57.399994 413.337579,56.400004 415.004254,55.6 C416.670929,54.799996 418.104248,53.466676 419.304254,51.6 C419.304254,50.93333 419.470919,50.533334 419.804254,50.4 C420.137589,50.266666 420.304254,49.86667 420.304254,49.2 C420.570922,46.666654 420.804253,43.800016 421.004254,40.6 C421.204255,37.399984 421.337587,34.200016 421.404254,31 C421.470921,27.799984 421.504254,24.633349 421.504254,21.5 L421.504254,9.2 L420.304254,10.4 C420.17092,10.533334 419.83759,10.6 419.304254,10.6 C418.370916,11.000002 417.070929,11.899993 415.404254,13.3 C413.737579,14.700007 412.037596,16.133326 410.304254,17.6 C408.570912,19.066674 407.004261,20.366661 405.604254,21.5 C404.204247,22.633339 403.23759,23.2 402.704254,23.2 C402.170918,23.2 401.670923,23.466664 401.204254,24 C400.737585,24.533336 400.504254,25.066664 400.504254,25.6 C400.104252,30.400024 399.804255,34.599982 399.604254,38.2 C399.404253,41.800018 399.304254,45.066652 399.304254,48 C399.304254,50.933348 399.404253,53.699987 399.604254,56.3 C399.804255,58.900013 400.104252,61.599986 400.504254,64.4 Z M430.904254,120.8 C430.237584,119.999996 429.837588,119.433335 429.704254,119.1 C429.57092,118.766665 429.170924,118.799998 428.504254,119.2 C426.237576,119.066666 424.17093,118.366673 422.304254,117.1 C420.437578,115.833327 418.970926,114.333342 417.904254,112.6 C417.637586,111.399994 417.437588,110.13334 417.304254,108.8 C417.17092,107.46666 417.037588,106.000008 416.904254,104.4 C416.77092,102.799992 416.604255,100.966677 416.404254,98.9 C416.204253,96.833323 415.970922,94.333348 415.704254,91.4 C415.704254,90.73333 415.470923,90.166669 415.004254,89.7 C414.537585,89.233331 413.970924,89 413.304254,89 C412.904252,88.866666 412.370924,88.666668 411.704254,88.4 C411.037584,88.266666 410.10426,88.133334 408.904254,88 C407.704248,87.866666 406.104264,87.8 404.104254,87.8 C401.704242,87.8 400.504254,88.999988 400.504254,91.4 C399.837584,97.133362 399.837584,102.366643 400.504254,107.1 C401.170924,111.833357 402.370912,115.799984 404.104254,119 C405.837596,122.200016 408.170906,124.433327 411.104254,125.7 C414.037602,126.966673 417.504234,126.866674 421.504254,125.4 C423.237596,124.73333 424.770914,123.966671 426.104254,123.1 C427.437594,122.233329 429.037578,121.46667 430.904254,120.8 Z M461.304254,105.4 C460.104248,105.4 459.170924,105.466666 458.504254,105.6 C457.837584,105.733334 457.170924,106.13333 456.504254,106.8 C455.437582,107.200002 454.270927,107.899995 453.004254,108.9 C451.737581,109.900005 450.237596,110.666664 448.504254,111.2 C446.637578,112.53334 445.170926,113.86666 444.104254,115.2 C443.037582,116.53334 442.504254,118.399988 442.504254,120.8 L442.504254,131.2 C442.504254,132.400006 442.737585,133.066666 443.204254,133.2 C443.670923,133.333334 444.237584,133.06667 444.904254,132.4 C446.504262,131.866664 447.804249,131.26667 448.804254,130.6 C449.804259,129.93333 450.737583,129.233337 451.604254,128.5 C452.470925,127.766663 453.370916,127.133336 454.304254,126.6 C455.237592,126.066664 456.43758,125.666668 457.904254,125.4 C458.970926,124.199994 459.804251,123.200004 460.404254,122.4 C461.004257,121.599996 461.304254,120.266676 461.304254,118.4 L461.304254,105.4 Z M417.904254,3.4 C414.43757,2.73333 411.937595,2.566665 410.404254,2.9 C408.870913,3.233335 407.50426,3.4 406.304254,3.4 L404.104254,3.4 C403.30425,4.06667 401.937597,5.099993 400.004254,6.5 C398.070911,7.900007 396.070931,9.366659 394.004254,10.9 C391.937577,12.433341 390.037596,13.833327 388.304254,15.1 C386.570912,16.366673 385.570922,17.199998 385.304254,17.6 C384.770918,18.133336 384.670919,18.633331 385.004254,19.1 C385.337589,19.566669 385.770918,19.8 386.304254,19.8 L401.704254,19.8 L402.304254,19.2 L403.104254,18.8 C403.370922,18.666666 403.704252,18.6 404.104254,18.6 C406.370932,16.866658 408.604243,15.133342 410.804254,13.4 C413.004265,11.666658 415.037578,9.933342 416.904254,8.2 C417.43759,7.53333 418.004251,6.86667 418.604254,6.2 C419.204257,5.53333 419.770918,4.600006 420.304254,3.4 L417.904254,3.4 Z M438.904254,59.8 C438.370918,60.200002 437.83759,60.433333 437.304254,60.5 C436.770918,60.566667 436.170924,60.6 435.504254,60.6 C434.437582,61.93334 433.30426,62.93333 432.104254,63.6 L428.504254,65.6 C427.437582,66.26667 426.570924,66.899997 425.904254,67.5 C425.237584,68.100003 424.904254,68.999994 424.904254,70.2 C424.370918,72.066676 424.070921,73.933324 424.004254,75.8 C423.937587,77.666676 423.904254,79.733322 423.904254,82 C423.904254,82.66667 424.137585,83.166665 424.604254,83.5 C425.070923,83.833335 425.637584,83.733336 426.304254,83.2 C428.037596,81.86666 429.570914,80.700005 430.904254,79.7 C432.237594,78.699995 433.770912,77.933336 435.504254,77.4 L436.804254,76.1 C437.004255,75.899999 437.370918,75.46667 437.904254,74.8 C438.43759,74.266664 438.904252,73.700003 439.304254,73.1 C439.704256,72.499997 439.570924,71.933336 438.904254,71.4 L438.904254,59.8 Z M412.304254,63.2 C413.370926,63.86667 414.504248,64.266666 415.704254,64.4 C416.90426,64.533334 418.104248,64.93333 419.304254,65.6 C419.83759,65.6 420.537583,65.566667 421.404254,65.5 C422.270925,65.433333 422.704254,65.06667 422.704254,64.4 C424.57093,63.333328 426.337579,62.366671 428.004254,61.5 C429.670929,60.633329 431.437578,59.666672 433.304254,58.6 C433.83759,57.93333 434.404251,57.366669 435.004254,56.9 C435.604257,56.433331 436.237584,56.2 436.904254,56.2 C437.570924,56.2 437.904254,55.400008 437.904254,53.8 L430.904254,53.8 C429.704248,53.8 428.270929,53.866666 426.604254,54 C424.937579,54.133334 423.237596,54.53333 421.504254,55.2 C420.437582,55.733336 419.270927,56.466662 418.004254,57.4 C416.737581,58.333338 415.17093,59.13333 413.304254,59.8 C412.770918,60.200002 412.470921,60.533332 412.404254,60.8 C412.337587,61.066668 412.304254,61.86666 412.304254,63.2 Z M374.704254,65.6 C376.970932,64.93333 378.270919,64.466668 378.604254,64.2 C378.937589,63.933332 378.83759,63.266672 378.304254,62.2 C377.637584,62.733336 377.03759,63.133332 376.504254,63.4 C375.970918,63.666668 375.370924,64.399994 374.704254,65.6 Z M545.808047,78.8411659 C544.917366,79.2592161 543.917523,79.7454923 542.808507,80.3 C541.075165,81.166671 539.341849,82.066662 537.608507,83 C535.875165,83.933338 534.241848,84.833329 532.708507,85.7 C531.175166,86.566671 529.941845,87.33333 529.008507,88 C528.341837,88.133334 527.308514,88.799994 525.908507,90 C524.5085,91.200006 523.008515,92.599992 521.408507,94.2 C519.808499,95.800008 518.208515,97.333326 516.608507,98.8 C515.008499,100.266674 513.675179,101.266664 512.608507,101.8 C512.075171,102.333336 511.775174,102.699999 511.708507,102.9 C511.64184,103.100001 511.608507,103.53333 511.608507,104.2 L513.808507,104.2 C521.675213,103.799998 527.908484,103.466668 532.508507,103.2 C537.10853,102.933332 540.608495,102.633335 543.008507,102.3 C545.408519,101.966665 547.041836,101.666668 547.908507,101.4 C548.775178,101.133332 549.541837,100.866668 550.208507,100.6 C550.741843,101.26667 551.208505,101.899997 551.608507,102.5 C552.008509,103.100003 551.875177,103.999994 551.208507,105.2 C551.208507,109.333354 551.175174,112.599988 551.108507,115 C551.04184,117.400012 550.975174,119.333326 550.908507,120.8 C550.84184,122.266674 550.708508,123.433329 550.508507,124.3 C550.308506,125.166671 550.008509,126.066662 549.608507,127 C547.741831,127.66667 545.541853,129.199988 543.008507,131.6 C540.475161,134.000012 538.008519,136.399988 535.608507,138.8 C533.208495,141.200012 530.975184,143.133326 528.908507,144.6 C526.84183,146.066674 525.341845,146.200006 524.408507,145 L464.808507,145 C464.808507,140.599978 464.875173,136.900015 465.008507,133.9 C465.141841,130.899985 465.275173,128.233345 465.408507,125.9 C465.541841,123.566655 465.675173,121.533342 465.808507,119.8 C465.941841,118.066658 466.008507,116.333342 466.008507,114.6 C465.341837,113.533328 465.37517,112.600004 466.108507,111.8 C466.841844,110.999996 467.541837,110.066672 468.208507,109 L494.008507,89 C494.541843,88.466664 495.108504,87.86667 495.708507,87.2 C496.30851,86.53333 496.875171,85.933336 497.408507,85.4 C492.341815,84.599996 487.408531,84.666662 482.608507,85.6 C477.808483,86.533338 473.008531,87 468.208507,87 C467.141835,87 466.30851,86.933334 465.708507,86.8 C465.108504,86.666666 464.808507,86.066672 464.808507,85 L466.008507,65.6 L491.608507,49.4 L501.008507,49.4 C509.141881,49.4 515.708482,49.433333 520.708507,49.5 C525.708532,49.566667 529.675159,49.699999 532.608507,49.9 C535.541855,50.100001 537.741833,50.333332 539.208507,50.6 C540.675181,50.866668 542.008501,51.133332 543.208507,51.4 C544.275179,51.4 545.308502,51.899995 546.308507,52.9 C547.308512,53.900005 547.808507,55.06666 547.808507,56.4 C547.808507,56.666668 547.708508,57.599992 547.508507,59.2 C547.308506,60.800008 547.075175,62.59999 546.808507,64.6 C546.541839,66.60001 546.308508,68.666656 546.108507,70.8 C545.908506,72.933344 545.775174,74.733326 545.708507,76.2 C545.654641,77.385056 545.687821,78.2654394 545.808047,78.8411659 L545.808047,78.8411659 Z M469.408507,82.4 C472.075187,81.999998 474.608495,81.766667 477.008507,81.7 C479.408519,81.633333 481.808495,81.6 484.208507,81.6 C486.608519,81.6 489.075161,81.566667 491.608507,81.5 C494.141853,81.433333 496.875159,81.266668 499.808507,81 C500.475177,81 500.875173,80.933334 501.008507,80.8 L502.208507,79.6 C504.075183,79.866668 505.175172,80.533328 505.508507,81.6 C505.841842,82.666672 505.875175,83.933326 505.608507,85.4 C498.808473,89.666688 492.641868,94.233309 487.108507,99.1 C481.575146,103.966691 475.875203,109.199972 470.008507,114.8 L469.208507,139.8 C472.141855,140.066668 476.208481,140.266666 481.408507,140.4 C486.608533,140.533334 491.975146,140.699999 497.508507,140.9 C503.041868,141.100001 508.108484,141.233333 512.708507,141.3 C517.30853,141.366667 520.475165,141.4 522.208507,141.4 C522.741843,136.73331 523.04184,133.600008 523.108507,132 C523.175174,130.399992 523.208507,129.333336 523.208507,128.8 C523.208507,126.933324 522.875177,125.700003 522.208507,125.1 C521.541837,124.499997 520.341849,124.2 518.608507,124.2 L481.008507,126.4 C482.475181,123.866654 485.008489,120.900017 488.608507,117.5 C492.208525,114.099983 496.04182,110.600018 500.108507,107 C504.175194,103.399982 508.141821,99.93335 512.008507,96.6 C515.875193,93.26665 518.875163,90.400012 521.008507,88 C521.541843,85.466654 521.875173,82.53335 522.008507,79.2 C522.141841,75.86665 522.208507,73.066678 522.208507,70.8 C522.208507,69.733328 520.841854,68.966669 518.108507,68.5 C515.37516,68.033331 511.975194,67.733334 507.908507,67.6 C503.84182,67.466666 499.50853,67.433333 494.908507,67.5 C490.308484,67.566667 486.175192,67.733332 482.508507,68 C478.841822,68.266668 476.008517,68.499999 474.008507,68.7 C472.008497,68.900001 471.608501,69 472.808507,69 C471.741835,69 471.108508,69.099999 470.908507,69.3 C470.708506,69.500001 470.608507,70.133328 470.608507,71.2 C470.341839,73.86668 470.108508,75.833327 469.908507,77.1 C469.708506,78.366673 469.575174,79.299997 469.508507,79.9 C469.44184,80.500003 469.408507,80.933332 469.408507,81.2 L469.408507,82.4 Z M475.408507,65.6 L481.008507,65.6 L525.608507,64.4 C527.341849,62.533324 529.141831,61.26667 531.008507,60.6 C532.875183,59.93333 534.541833,58.866674 536.008507,57.4 C536.675177,56.866664 537.04184,56.500001 537.108507,56.3 C537.175174,56.099999 537.208507,55.66667 537.208507,55 L536.008507,55 C529.608475,54.33333 523.175206,53.800002 516.708507,53.4 C510.241808,52.999998 503.808539,52.8 497.408507,52.8 C495.008495,52.8 493.075181,53.533326 491.608507,55 C489.341829,56.200006 487.208517,57.366661 485.208507,58.5 C483.208497,59.633339 481.075185,60.733328 478.808507,61.8 C478.275171,62.46667 477.70851,62.899999 477.108507,63.1 C476.508504,63.300001 475.941843,63.73333 475.408507,64.4 L475.408507,65.6 Z M494.008507,120.6 L524.408507,119.2 C525.875181,119.2 527.241834,118.86667 528.508507,118.2 C529.77518,117.53333 530.975168,116.700005 532.108507,115.7 C533.241846,114.699995 534.341835,113.666672 535.408507,112.6 C536.475179,111.533328 537.475169,110.600004 538.408507,109.8 C538.408507,109.399998 538.608505,109.100001 539.008507,108.9 C539.408509,108.699999 539.608507,108.26667 539.608507,107.6 C538.941837,106.93333 538.341843,106.566667 537.808507,106.5 C537.275171,106.433333 536.675177,106.4 536.008507,106.4 C530.408479,106.4 524.9752,106.866662 519.708507,107.8 C514.441814,108.733338 509.008535,109.399998 503.408507,109.8 C503.141839,110.200002 502.441846,110.899995 501.308507,111.9 C500.175168,112.900005 499.008513,113.933328 497.808507,115 C496.608501,116.066672 495.508512,117.033329 494.508507,117.9 C493.508502,118.766671 492.941841,119.2 492.808507,119.2 L494.008507,120.6 Z M528.008507,141.4 C528.808511,140.73333 530.208497,139.466676 532.208507,137.6 C534.208517,135.733324 536.275163,133.766677 538.408507,131.7 C540.541851,129.633323 542.441832,127.633343 544.108507,125.7 C545.775182,123.766657 546.608507,122.400004 546.608507,121.6 L546.608507,109 L544.208507,109 C541.541827,111.66668 538.941853,114.099989 536.408507,116.3 C533.875161,118.500011 531.075189,120.666656 528.008507,122.8 C526.675167,128.533362 526.675167,134.7333 528.008507,141.4 Z M543.208507,57.4 C542.541837,57.933336 542.108508,58.233333 541.908507,58.3 C541.708506,58.366667 541.275177,58.4 540.608507,58.4 C538.875165,59.73334 536.908518,61.166659 534.708507,62.7 C532.508496,64.233341 530.275185,65.533328 528.008507,66.6 C527.341837,67.26667 526.775176,68.066662 526.308507,69 C525.841838,69.933338 525.608507,70.666664 525.608507,71.2 C525.875175,72.266672 525.975174,73.433327 525.908507,74.7 C525.84184,75.966673 525.775174,77.199994 525.708507,78.4 C525.64184,79.600006 525.64184,80.733328 525.708507,81.8 C525.775174,82.866672 526.075171,83.73333 526.608507,84.4 C527.275177,84.4 527.708506,84.166669 527.908507,83.7 C528.108508,83.233331 528.475171,83 529.008507,83 C531.275185,81.533326 533.275165,80.233339 535.008507,79.1 C536.741849,77.966661 538.875161,77.133336 541.408507,76.6 L543.208507,57.4 Z" id="pwittz"></path>
        </g>
    </g>
</svg>